<?xml version="1.0" encoding="UTF-8"?>
<svg xmlns="http://www.w3.org/2000/svg" xmlns:xlink="http://www.w3.org/1999/xlink" width="1920" height="1080" viewBox="0 0 1920 1080">
<defs>
<g>
<g id="glyph-0-0">
<path d="M 3.671875 -7.890625 L 4.453125 -7.304688 L 4.101562 -7.109375 C 3.660156 -6.277344 3.171875 -5.535156 2.636719 -4.882812 C 2.101562 -4.230469 1.417969 -3.660156 0.585938 -3.164062 L 0.507812 -3.28125 C 1.183594 -3.828125 1.785156 -4.472656 2.304688 -5.214844 C 2.824219 -5.957031 3.28125 -6.847656 3.671875 -7.890625 M 6.40625 -7.773438 L 6.09375 -7.578125 C 6.378906 -6.535156 6.847656 -5.730469 7.5 -5.15625 C 8.152344 -4.582031 8.839844 -4.230469 9.570312 -4.101562 L 9.570312 -3.984375 C 9.179688 -3.933594 8.90625 -3.761719 8.75 -3.476562 C 7.890625 -3.945312 7.207031 -4.570312 6.699219 -5.351562 C 6.191406 -6.132812 5.847656 -7.042969 5.664062 -8.085938 L 6.40625 -7.773438 M 2.148438 -4.101562 L 6.601562 -4.101562 L 6.992188 -4.492188 L 7.539062 -3.945312 L 7.226562 -3.710938 C 7.175781 -1.652344 7.042969 -0.410156 6.835938 0.0195312 C 6.628906 0.449219 6.261719 0.753906 5.742188 0.9375 C 5.664062 0.519531 5.300781 0.222656 4.648438 0.0390625 L 4.648438 -0.117188 C 5.300781 -0.0117188 5.722656 0.03125 5.917969 0.0195312 C 6.113281 0.0078125 6.261719 -0.144531 6.367188 -0.429688 C 6.472656 -0.714844 6.574219 -1.863281 6.679688 -3.867188 L 4.648438 -3.867188 C 4.492188 -2.746094 4.179688 -1.804688 3.710938 -1.035156 C 3.242188 -0.265625 2.34375 0.402344 1.015625 0.976562 L 0.9375 0.820312 C 2.109375 0.222656 2.898438 -0.488281 3.300781 -1.308594 C 3.703125 -2.128906 3.945312 -2.980469 4.023438 -3.867188 L 2.8125 -3.867188 L 2.460938 -3.789062 Z "/>
</g>
<g id="glyph-0-1">
<path d="M 8.085938 -7.851562 L 8.828125 -7.304688 C 8.59375 -7.226562 8.230469 -6.925781 7.734375 -6.40625 C 7.238281 -5.859375 6.652344 -5.351562 5.976562 -4.882812 L 5.898438 -5 C 6.261719 -5.3125 6.652344 -5.734375 7.070312 -6.269531 C 7.488281 -6.804688 7.824219 -7.332031 8.085938 -7.851562 M 8.476562 -5.234375 L 9.140625 -4.609375 C 8.90625 -4.53125 8.464844 -4.207031 7.8125 -3.632812 C 7.160156 -3.035156 6.417969 -2.527344 5.585938 -2.109375 L 5.507812 -2.226562 C 6.261719 -2.773438 6.894531 -3.328125 7.402344 -3.886719 C 7.910156 -4.445312 8.269531 -4.894531 8.476562 -5.234375 M 8.828125 -2.65625 L 9.53125 -1.953125 C 9.269531 -1.925781 8.878906 -1.679688 8.359375 -1.210938 C 7.8125 -0.714844 7.21875 -0.28125 6.582031 0.0976562 C 5.945312 0.476562 5.390625 0.742188 4.921875 0.898438 L 4.84375 0.78125 C 5.105469 0.652344 5.527344 0.382812 6.113281 -0.0195312 C 6.699219 -0.421875 7.253906 -0.890625 7.773438 -1.425781 C 8.292969 -1.960938 8.644531 -2.371094 8.828125 -2.65625 M 2.8125 -7.03125 L 2.8125 -4.375 L 4.257812 -4.375 L 4.257812 -7.03125 L 2.8125 -7.03125 M 4.21875 0.507812 C 4.246094 -0.324219 4.257812 -1.875 4.257812 -4.140625 L 2.8125 -4.140625 C 2.761719 -1.925781 2.019531 -0.273438 0.585938 0.820312 L 0.507812 0.703125 C 1.601562 -0.46875 2.1875 -2.082031 2.265625 -4.140625 L 1.328125 -4.140625 L 0.859375 -4.0625 L 0.546875 -4.375 L 2.265625 -4.375 L 2.265625 -7.03125 L 1.601562 -7.03125 L 1.132812 -6.953125 L 0.820312 -7.265625 L 5.039062 -7.265625 L 5.546875 -7.773438 L 6.289062 -7.03125 L 4.765625 -7.03125 L 4.765625 -4.375 L 5.15625 -4.375 L 5.664062 -4.882812 L 6.40625 -4.140625 L 4.765625 -4.140625 C 4.765625 -1.769531 4.777344 -0.339844 4.804688 0.15625 Z "/>
</g>
<g id="glyph-0-2">
<path d="M 3.554688 -7.070312 C 3.582031 -4.960938 3.546875 -3.546875 3.457031 -2.832031 C 3.367188 -2.117188 3.136719 -1.453125 2.773438 -0.839844 C 2.410156 -0.226562 1.691406 0.402344 0.625 1.054688 L 0.585938 0.898438 C 1.574219 0.144531 2.21875 -0.636719 2.519531 -1.445312 C 2.820312 -2.253906 2.96875 -3.25 2.96875 -4.433594 C 2.96875 -5.617188 2.957031 -6.707031 2.929688 -7.695312 L 3.59375 -7.304688 L 6.289062 -7.304688 L 6.640625 -7.695312 L 7.304688 -7.148438 L 6.914062 -6.875 L 6.914062 -0.664062 C 6.886719 -0.195312 7.097656 0.0390625 7.539062 0.0390625 L 8.28125 0.0390625 C 8.542969 0.0664062 8.691406 -0.105469 8.730469 -0.46875 C 8.769531 -0.832031 8.800781 -1.394531 8.828125 -2.148438 L 9.023438 -2.148438 C 9.050781 -1.472656 9.089844 -1.003906 9.140625 -0.742188 C 9.191406 -0.480469 9.347656 -0.261719 9.609375 -0.078125 C 9.375 0.3125 9.035156 0.519531 8.59375 0.546875 L 7.265625 0.546875 C 6.640625 0.546875 6.328125 0.222656 6.328125 -0.429688 L 6.328125 -7.070312 Z "/>
</g>
<g id="glyph-0-3">
<path d="M 6.171875 -0.0390625 C 6.746094 0.0664062 7.148438 0.109375 7.382812 0.0976562 C 7.617188 0.0859375 7.734375 -0.0507812 7.734375 -0.3125 L 7.734375 -6.679688 L 4.6875 -6.679688 C 4.347656 -6.679688 4.035156 -6.640625 3.75 -6.5625 L 3.398438 -6.914062 L 8.4375 -6.914062 L 8.90625 -7.382812 L 9.609375 -6.679688 L 8.242188 -6.679688 L 8.242188 -0.0390625 C 8.292969 0.402344 8.035156 0.742188 7.460938 0.976562 C 7.410156 0.664062 6.964844 0.378906 6.132812 0.117188 L 6.171875 -0.0390625 M 3.75 -1.40625 C 3.777344 -2.058594 3.789062 -2.714844 3.789062 -3.378906 C 3.789062 -4.042969 3.777344 -4.699219 3.75 -5.351562 L 4.296875 -5.039062 L 5.9375 -5.039062 L 6.210938 -5.390625 L 6.835938 -4.921875 L 6.523438 -4.6875 L 6.523438 -3.164062 C 6.523438 -2.773438 6.535156 -2.382812 6.5625 -1.992188 L 5.976562 -1.71875 L 5.976562 -2.304688 L 4.296875 -2.304688 L 4.296875 -1.640625 L 3.75 -1.40625 M 4.296875 -4.804688 L 4.296875 -2.539062 L 5.976562 -2.539062 L 5.976562 -4.804688 L 4.296875 -4.804688 M 1.953125 0.976562 C 1.980469 -0.300781 1.992188 -1.199219 1.992188 -1.71875 L 1.992188 -4.84375 C 1.679688 -4.324219 1.222656 -3.777344 0.625 -3.203125 L 0.546875 -3.320312 C 1.25 -4.285156 1.769531 -5.214844 2.109375 -6.113281 C 2.449219 -7.011719 2.667969 -7.683594 2.773438 -8.125 L 3.59375 -7.578125 L 3.242188 -7.34375 C 2.902344 -6.667969 2.617188 -6.066406 2.382812 -5.546875 L 2.8125 -5.273438 L 2.5 -5.039062 L 2.5 -0.9375 C 2.5 -0.363281 2.511719 0.167969 2.539062 0.664062 Z "/>
</g>
<g id="glyph-0-4">
<path d="M 5.234375 -3.554688 C 5.234375 -1.054688 5.246094 0.363281 5.273438 0.703125 L 4.609375 1.015625 C 4.636719 -0.078125 4.648438 -1.433594 4.648438 -3.046875 C 3.503906 -1.40625 2.136719 -0.195312 0.546875 0.585938 L 0.429688 0.46875 C 2.019531 -0.546875 3.292969 -1.886719 4.257812 -3.554688 L 1.835938 -3.554688 C 1.496094 -3.554688 1.183594 -3.515625 0.898438 -3.4375 L 0.546875 -3.789062 L 4.648438 -3.789062 L 4.648438 -5.859375 L 2.65625 -5.859375 C 2.160156 -5.027344 1.707031 -4.414062 1.289062 -4.023438 L 1.171875 -4.101562 C 1.902344 -5.144531 2.394531 -6.339844 2.65625 -7.695312 L 3.554688 -7.1875 L 3.203125 -7.03125 C 3.046875 -6.691406 2.890625 -6.378906 2.734375 -6.09375 L 4.648438 -6.09375 C 4.648438 -6.71875 4.636719 -7.421875 4.609375 -8.203125 L 5.625 -7.65625 L 5.234375 -7.421875 L 5.234375 -6.09375 L 6.835938 -6.09375 L 7.421875 -6.679688 L 8.242188 -5.859375 L 5.234375 -5.859375 L 5.234375 -3.789062 L 8.007812 -3.789062 L 8.59375 -4.375 L 9.414062 -3.554688 L 5.664062 -3.554688 C 6.472656 -1.835938 7.761719 -0.792969 9.53125 -0.429688 L 9.53125 -0.273438 C 9.089844 -0.246094 8.789062 -0.0664062 8.632812 0.273438 C 6.941406 -0.714844 5.886719 -1.992188 5.46875 -3.554688 Z "/>
</g>
<g id="glyph-0-5">
<path d="M 3.515625 -2.578125 L 3.515625 -0.390625 C 3.515625 0.0273438 3.527344 0.390625 3.554688 0.703125 L 2.929688 1.015625 C 2.957031 0.574219 2.96875 0.0390625 2.96875 -0.585938 L 2.96875 -2.1875 C 2.292969 -1.25 1.472656 -0.496094 0.507812 0.078125 L 0.429688 -0.0390625 C 1.601562 -1.054688 2.433594 -2.148438 2.929688 -3.320312 L 1.875 -3.320312 C 1.535156 -3.320312 1.222656 -3.28125 0.9375 -3.203125 L 0.585938 -3.554688 L 2.96875 -3.554688 L 2.96875 -4.84375 C 2.1875 -4.792969 1.496094 -4.738281 0.898438 -4.6875 L 0.859375 -4.84375 C 1.796875 -4.972656 2.578125 -5.105469 3.203125 -5.234375 C 3.828125 -5.363281 4.335938 -5.558594 4.726562 -5.820312 L 5.351562 -5.078125 C 5.039062 -5.078125 4.425781 -5.027344 3.515625 -4.921875 L 3.515625 -3.554688 L 4.53125 -3.554688 L 5.078125 -4.0625 L 5.742188 -3.320312 L 3.515625 -3.320312 L 3.515625 -2.773438 C 4.324219 -2.488281 4.804688 -2.253906 4.960938 -2.070312 C 5.117188 -1.886719 5.195312 -1.707031 5.195312 -1.523438 C 5.195312 -1.472656 5.175781 -1.359375 5.136719 -1.191406 C 5.097656 -1.023438 5.050781 -0.9375 5 -0.9375 C 4.921875 -0.9375 4.804688 -1.082031 4.648438 -1.367188 C 4.414062 -1.785156 4.035156 -2.1875 3.515625 -2.578125 M 6.796875 -4.453125 C 6.796875 -2.578125 6.808594 -1.457031 6.835938 -1.09375 L 6.210938 -0.742188 C 6.238281 -1.523438 6.25 -2.292969 6.25 -3.046875 C 6.25 -3.800781 6.238281 -4.519531 6.210938 -5.195312 L 7.148438 -4.6875 L 6.796875 -4.453125 M 8.085938 -4.375 C 8.085938 -5 8.074219 -5.574219 8.046875 -6.09375 L 8.984375 -5.664062 L 8.632812 -5.390625 L 8.632812 -0.117188 C 8.660156 0.378906 8.386719 0.730469 7.8125 0.9375 C 7.785156 0.546875 7.371094 0.261719 6.5625 0.078125 L 6.5625 -0.078125 C 7.1875 -0.0273438 7.597656 0 7.792969 0 C 7.988281 0 8.085938 -0.117188 8.085938 -0.351562 L 8.085938 -4.375 M 3.320312 -6.953125 C 3.320312 -7.394531 3.308594 -7.8125 3.28125 -8.203125 L 4.21875 -7.8125 L 3.867188 -7.578125 L 3.867188 -6.953125 L 5.976562 -6.953125 C 5.976562 -7.394531 5.964844 -7.8125 5.9375 -8.203125 L 6.835938 -7.8125 L 6.523438 -7.539062 L 6.523438 -6.953125 L 8.046875 -6.953125 L 8.710938 -7.539062 L 9.53125 -6.71875 L 6.523438 -6.71875 L 6.523438 -6.015625 L 5.976562 -5.742188 L 5.976562 -6.71875 L 3.867188 -6.71875 L 3.867188 -5.898438 L 3.320312 -5.625 L 3.320312 -6.71875 L 1.757812 -6.71875 C 1.417969 -6.71875 1.105469 -6.679688 0.820312 -6.601562 L 0.46875 -6.953125 Z "/>
</g>
<g id="glyph-0-6">
<path d="M 9.375 -4.921875 L 9.101562 -4.726562 C 8.632812 -3.347656 8.136719 -2.355469 7.617188 -1.757812 L 7.617188 0.15625 L 8.28125 0.15625 L 8.828125 -0.390625 L 9.609375 0.390625 L 4.804688 0.390625 C 4.464844 0.390625 4.152344 0.429688 3.867188 0.507812 L 3.515625 0.15625 L 5.46875 0.15625 L 5.46875 -6.914062 L 5.117188 -6.914062 C 4.777344 -6.914062 4.464844 -6.875 4.179688 -6.796875 L 3.828125 -7.148438 L 8.164062 -7.148438 L 8.671875 -7.65625 L 9.414062 -6.914062 L 7.617188 -6.914062 L 7.617188 -2.03125 C 8.191406 -3.203125 8.527344 -4.335938 8.632812 -5.429688 L 9.375 -4.921875 M 4.023438 -5.039062 L 4.140625 -5.078125 C 4.582031 -4.324219 4.871094 -3.757812 5 -3.378906 C 5.128906 -3 5.175781 -2.714844 5.136719 -2.519531 C 5.097656 -2.324219 5.03125 -2.195312 4.941406 -2.128906 C 4.851562 -2.0625 4.777344 -2.03125 4.726562 -2.03125 C 4.621094 -2.03125 4.558594 -2.265625 4.53125 -2.734375 C 4.480469 -3.308594 4.308594 -4.074219 4.023438 -5.039062 M 5.976562 -6.914062 L 5.976562 0.15625 L 7.109375 0.15625 L 7.109375 -6.914062 L 5.976562 -6.914062 M 2.1875 -5.507812 C 2.03125 -4.777344 1.769531 -3.722656 1.40625 -2.34375 C 1.769531 -2.214844 2.148438 -2.058594 2.539062 -1.875 C 2.851562 -2.683594 3.136719 -3.894531 3.398438 -5.507812 L 2.1875 -5.507812 M 2.96875 -7.695312 L 2.617188 -7.460938 C 2.539062 -7.121094 2.410156 -6.550781 2.226562 -5.742188 L 3.359375 -5.742188 L 3.632812 -6.132812 L 4.21875 -5.664062 L 3.90625 -5.390625 C 3.644531 -3.75 3.347656 -2.5 3.007812 -1.640625 C 3.398438 -1.433594 3.644531 -1.257812 3.75 -1.113281 C 3.855469 -0.96875 3.90625 -0.820312 3.90625 -0.664062 C 3.90625 -0.585938 3.886719 -0.488281 3.847656 -0.371094 C 3.808594 -0.253906 3.777344 -0.195312 3.75 -0.195312 C 3.671875 -0.195312 3.582031 -0.285156 3.476562 -0.46875 C 3.269531 -0.753906 3.046875 -1.003906 2.8125 -1.210938 C 2.136719 -0.246094 1.367188 0.46875 0.507812 0.9375 L 0.429688 0.820312 C 1.339844 0.0390625 1.992188 -0.730469 2.382812 -1.484375 C 1.785156 -1.847656 1.277344 -2.109375 0.859375 -2.265625 C 1.144531 -3.308594 1.40625 -4.386719 1.640625 -5.507812 C 1.300781 -5.507812 0.988281 -5.46875 0.703125 -5.390625 L 0.351562 -5.742188 L 1.679688 -5.742188 C 1.914062 -6.835938 2.042969 -7.628906 2.070312 -8.125 Z "/>
</g>
<g id="glyph-0-7">
<path d="M 2.773438 -4.140625 L 2.773438 -3.242188 L 5 -3.242188 L 5 -4.140625 L 2.773438 -4.140625 M 2.226562 -2.34375 C 2.253906 -3.386719 2.265625 -4.558594 2.265625 -5.859375 C 1.769531 -5.285156 1.171875 -4.765625 0.46875 -4.296875 L 0.390625 -4.414062 C 0.964844 -4.910156 1.484375 -5.5 1.953125 -6.191406 C 2.421875 -6.882812 2.773438 -7.566406 3.007812 -8.242188 L 3.789062 -7.695312 L 3.4375 -7.578125 L 2.851562 -6.640625 L 7.773438 -6.640625 L 8.242188 -7.109375 L 8.90625 -6.40625 L 5.507812 -6.40625 L 5.507812 -5.46875 L 7.34375 -5.46875 L 7.773438 -5.898438 L 8.398438 -5.234375 L 5.507812 -5.234375 L 5.507812 -4.375 L 7.265625 -4.375 L 7.695312 -4.804688 L 8.320312 -4.140625 L 5.507812 -4.140625 L 5.507812 -3.242188 L 7.695312 -3.242188 L 8.164062 -3.710938 L 8.828125 -3.007812 L 2.773438 -3.007812 L 2.773438 -2.539062 L 2.226562 -2.34375 M 4.648438 -8.125 C 5.144531 -7.941406 5.457031 -7.78125 5.585938 -7.636719 C 5.714844 -7.492188 5.78125 -7.371094 5.78125 -7.265625 C 5.78125 -7.160156 5.734375 -7.042969 5.644531 -6.914062 C 5.554688 -6.785156 5.496094 -6.71875 5.46875 -6.71875 C 5.363281 -6.71875 5.273438 -6.835938 5.195312 -7.070312 C 5.066406 -7.410156 4.855469 -7.722656 4.570312 -8.007812 L 4.648438 -8.125 M 2.773438 -6.40625 L 2.773438 -5.46875 L 5 -5.46875 L 5 -6.40625 L 2.773438 -6.40625 M 2.773438 -5.234375 L 2.773438 -4.375 L 5 -4.375 L 5 -5.234375 L 2.773438 -5.234375 M 4.804688 -2.03125 C 4.804688 -2.421875 4.792969 -2.734375 4.765625 -2.96875 L 5.625 -2.65625 L 5.3125 -2.382812 L 5.3125 -2.03125 L 8.4375 -2.03125 L 8.90625 -2.5 L 9.570312 -1.796875 L 5.742188 -1.796875 C 6.238281 -1.222656 6.796875 -0.78125 7.421875 -0.46875 C 8.046875 -0.15625 8.777344 0.0390625 9.609375 0.117188 L 9.609375 0.234375 C 9.21875 0.3125 8.984375 0.480469 8.90625 0.742188 C 8.230469 0.535156 7.617188 0.242188 7.070312 -0.136719 C 6.523438 -0.515625 6.015625 -1.066406 5.546875 -1.796875 L 5.3125 -1.796875 C 5.3125 -0.496094 5.324219 0.339844 5.351562 0.703125 L 4.765625 1.015625 C 4.792969 0.183594 4.804688 -0.742188 4.804688 -1.757812 C 4.257812 -1.160156 3.640625 -0.652344 2.949219 -0.234375 C 2.257812 0.183594 1.433594 0.558594 0.46875 0.898438 L 0.429688 0.742188 C 1.367188 0.324219 2.160156 -0.125 2.8125 -0.605469 C 3.464844 -1.085938 3.90625 -1.484375 4.140625 -1.796875 L 1.71875 -1.796875 C 1.378906 -1.796875 1.066406 -1.757812 0.78125 -1.679688 L 0.429688 -2.03125 Z "/>
</g>
<g id="glyph-1-0">
</g>
<g id="glyph-1-1">
<path d="M 0.4375 -3.0625 L 2.9375 -3.0625 L 2.9375 -2.300781 L 0.4375 -2.300781 Z "/>
</g>
</g>
</defs>
<g fill="rgb(60.392157%, 44.705882%, 67.45098%)" fill-opacity="1">
<use xlink:href="#glyph-0-0" x="30" y="30.070312"/>
<use xlink:href="#glyph-0-1" x="40" y="30.070312"/>
<use xlink:href="#glyph-0-2" x="50" y="30.070312"/>
<use xlink:href="#glyph-0-3" x="60" y="30.070312"/>
</g>
<g fill="rgb(60.392157%, 44.705882%, 67.45098%)" fill-opacity="1">
<use xlink:href="#glyph-1-0" x="70" y="29.282227"/>
<use xlink:href="#glyph-1-1" x="73" y="29.282227"/>
<use xlink:href="#glyph-1-0" x="76" y="29.282227"/>
</g>
<g fill="rgb(60.392157%, 44.705882%, 67.45098%)" fill-opacity="1">
<use xlink:href="#glyph-0-4" x="79" y="30.070312"/>
<use xlink:href="#glyph-0-5" x="89" y="30.070312"/>
<use xlink:href="#glyph-0-6" x="99" y="30.070312"/>
<use xlink:href="#glyph-0-7" x="109" y="30.070312"/>
</g>
</svg>
