<?xml version="1.0" encoding="UTF-8"?>
<svg xmlns="http://www.w3.org/2000/svg" xmlns:xlink="http://www.w3.org/1999/xlink" width="1920" height="1080" viewBox="0 0 1920 1080">
<defs>
<g>
<g id="glyph-0-0">
<path d="M 2.023438 1.707031 C 2.484375 1.707031 2.746094 0.210938 2.804688 -2.773438 C 2.816406 -3.242188 2.820312 -3.601562 2.824219 -3.847656 C 2.878906 -6.082031 3.109375 -7.683594 3.523438 -8.644531 C 3.933594 -9.609375 4.578125 -10.089844 5.457031 -10.089844 C 5.804688 -10.089844 6.085938 -10 6.300781 -9.816406 C 6.519531 -9.636719 6.628906 -9.402344 6.628906 -9.121094 C 6.628906 -8.886719 6.558594 -8.703125 6.417969 -8.5625 C 6.28125 -8.429688 6.089844 -8.359375 5.851562 -8.359375 C 5.671875 -8.359375 5.519531 -8.402344 5.398438 -8.484375 C 5.277344 -8.566406 5.1875 -8.683594 5.136719 -8.835938 C 5.109375 -8.898438 5.085938 -9.011719 5.066406 -9.167969 C 5.046875 -9.324219 5.003906 -9.402344 4.933594 -9.402344 C 4.46875 -9.402344 4.207031 -8.058594 4.148438 -5.371094 C 4.128906 -4.535156 4.113281 -3.875 4.09375 -3.398438 C 4.019531 -1.320312 3.777344 0.167969 3.367188 1.066406 C 2.957031 1.964844 2.328125 2.414062 1.476562 2.414062 C 1.136719 2.414062 0.855469 2.324219 0.632812 2.144531 C 0.414062 1.964844 0.304688 1.734375 0.304688 1.453125 C 0.304688 1.207031 0.378906 1.019531 0.527344 0.882812 C 0.675781 0.746094 0.882812 0.675781 1.144531 0.675781 C 1.289062 0.675781 1.414062 0.707031 1.515625 0.769531 C 1.621094 0.835938 1.707031 0.925781 1.769531 1.046875 C 1.8125 1.125 1.847656 1.253906 1.867188 1.433594 C 1.890625 1.617188 1.941406 1.707031 2.023438 1.707031 Z "/>
</g>
</g>
</defs>
<g fill="rgb(100%, 100%, 100%)" fill-opacity="1">
<use xlink:href="#glyph-0-0" x="30" y="32.375977"/>
</g>
</svg>
