<?xml version="1.0" encoding="UTF-8"?>
<svg xmlns="http://www.w3.org/2000/svg" xmlns:xlink="http://www.w3.org/1999/xlink" width="1920" height="1080" viewBox="0 0 1920 1080">
<defs>
<g>
<g id="glyph-0-0">
<path d="M 2.214844 -3.125 L 2.214844 -2.441406 L 3.9375 -2.441406 L 3.9375 -3.125 L 2.214844 -3.125 M 4.363281 -3.125 L 4.363281 -2.441406 L 6.023438 -2.441406 L 6.023438 -3.125 L 4.363281 -3.125 M 2.214844 -2.246094 L 2.214844 -1.59375 L 3.9375 -1.59375 L 3.9375 -2.246094 L 2.214844 -2.246094 M 4.363281 -2.246094 L 4.363281 -1.59375 L 6.023438 -1.59375 L 6.023438 -2.246094 L 4.363281 -2.246094 M 6.445312 -3.027344 C 6.445312 -2.179688 6.457031 -1.617188 6.476562 -1.335938 L 6.023438 -1.140625 L 6.023438 -1.398438 L 4.363281 -1.398438 L 4.363281 -0.683594 L 6.121094 -0.683594 L 6.574219 -1.074219 L 7.097656 -0.488281 L 4.363281 -0.488281 L 4.363281 0.292969 L 6.867188 0.292969 L 7.355469 -0.164062 L 7.910156 0.488281 L 1.53125 0.488281 C 1.246094 0.488281 0.988281 0.519531 0.75 0.585938 L 0.457031 0.292969 L 3.9375 0.292969 L 3.9375 -0.488281 L 2.246094 -0.488281 C 1.964844 -0.488281 1.703125 -0.457031 1.464844 -0.390625 L 1.171875 -0.683594 L 3.9375 -0.683594 L 3.9375 -1.398438 L 2.214844 -1.398438 L 2.214844 -1.203125 L 1.757812 -1.042969 C 1.78125 -1.476562 1.789062 -1.902344 1.789062 -2.328125 C 1.789062 -2.75 1.78125 -3.167969 1.757812 -3.582031 L 2.214844 -3.320312 L 5.988281 -3.320312 L 6.183594 -3.582031 L 6.671875 -3.222656 L 6.445312 -3.027344 M 2.3125 -6.25 L 2.3125 -5.695312 L 5.925781 -5.695312 L 5.925781 -6.25 L 2.3125 -6.25 M 2.3125 -5.5 L 2.3125 -4.914062 L 5.925781 -4.914062 L 5.925781 -5.5 L 2.3125 -5.5 M 6.347656 -6.183594 C 6.347656 -5.382812 6.359375 -4.851562 6.378906 -4.589844 L 5.925781 -4.394531 L 5.925781 -4.71875 L 2.3125 -4.71875 L 2.3125 -4.425781 L 1.855469 -4.230469 C 1.878906 -4.578125 1.886719 -5.019531 1.886719 -5.550781 C 1.886719 -6.082031 1.878906 -6.457031 1.855469 -6.671875 L 2.34375 -6.445312 L 5.859375 -6.445312 L 6.054688 -6.738281 L 6.574219 -6.378906 L 6.347656 -6.183594 M 0.324219 -4.070312 L 7 -4.070312 L 7.453125 -4.492188 L 8.007812 -3.875 L 1.238281 -3.875 C 1.0625 -3.875 0.855469 -3.839844 0.617188 -3.777344 Z "/>
</g>
<g id="glyph-0-1">
<path d="M 1.398438 -6.21875 L 6.183594 -6.21875 L 6.609375 -6.609375 L 7.226562 -5.890625 C 6.964844 -5.890625 6.636719 -5.777344 6.234375 -5.550781 C 5.832031 -5.320312 5.261719 -4.949219 4.523438 -4.425781 L 4.816406 -4.230469 L 4.460938 -4.035156 L 4.460938 -3.417969 L 6.707031 -3.417969 L 7.226562 -3.9375 L 7.941406 -3.222656 L 4.460938 -3.222656 L 4.460938 -0.0976562 C 4.460938 0.316406 4.175781 0.617188 3.613281 0.8125 C 3.613281 0.488281 3.253906 0.226562 2.539062 0.03125 L 2.539062 -0.128906 C 3.125 -0.0664062 3.515625 -0.03125 3.710938 -0.03125 C 3.90625 -0.03125 3.992188 -0.183594 3.972656 -0.488281 L 3.972656 -3.222656 L 1.433594 -3.222656 C 1.148438 -3.222656 0.890625 -3.191406 0.652344 -3.125 L 0.359375 -3.417969 L 3.972656 -3.417969 C 3.972656 -3.894531 3.960938 -4.363281 3.9375 -4.816406 L 4.394531 -4.523438 L 6.183594 -6.023438 L 2.472656 -6.023438 C 2.191406 -6.023438 1.929688 -5.988281 1.691406 -5.925781 Z "/>
</g>
<g id="glyph-0-2">
<path d="M 5.46875 -5.011719 L 5.011719 -5.011719 C 4.730469 -5.011719 4.46875 -4.980469 4.230469 -4.914062 L 3.9375 -5.207031 L 5.988281 -5.207031 C 6.273438 -5.835938 6.457031 -6.378906 6.542969 -6.835938 L 7.160156 -6.476562 C 6.945312 -6.390625 6.617188 -5.96875 6.183594 -5.207031 L 6.933594 -5.207031 L 7.324219 -5.566406 L 7.84375 -5.011719 L 6.023438 -5.011719 C 5.71875 -4.730469 5.5 -4.523438 5.371094 -4.394531 C 5.589844 -4.199219 5.765625 -4.007812 5.90625 -3.824219 C 6.050781 -3.640625 6.140625 -3.515625 6.183594 -3.449219 C 6.554688 -3.820312 6.859375 -4.210938 7.097656 -4.621094 L 7.617188 -4.167969 C 7.335938 -4.101562 6.878906 -3.820312 6.25 -3.320312 L 6.347656 -3.027344 C 6.976562 -2.746094 7.355469 -2.527344 7.488281 -2.375 C 7.617188 -2.222656 7.683594 -2.082031 7.683594 -1.953125 C 7.683594 -1.867188 7.648438 -1.761719 7.585938 -1.644531 C 7.519531 -1.523438 7.476562 -1.464844 7.453125 -1.464844 C 7.390625 -1.464844 7.335938 -1.53125 7.292969 -1.660156 C 7.183594 -1.898438 7.058594 -2.117188 6.917969 -2.3125 C 6.777344 -2.507812 6.597656 -2.691406 6.378906 -2.863281 C 6.46875 -2.429688 6.511719 -2.039062 6.511719 -1.691406 C 6.511719 -1.519531 6.488281 -1.273438 6.445312 -0.960938 C 6.402344 -0.644531 6.121094 -0.421875 5.597656 -0.292969 C 5.597656 -0.53125 5.382812 -0.707031 4.949219 -0.8125 L 4.949219 -0.945312 C 5.121094 -0.921875 5.304688 -0.910156 5.5 -0.910156 C 5.71875 -0.910156 5.855469 -0.949219 5.90625 -1.023438 C 5.960938 -1.101562 6 -1.246094 6.023438 -1.464844 C 6.042969 -1.683594 6.042969 -2.007812 6.023438 -2.441406 C 5.5 -1.964844 4.851562 -1.539062 4.070312 -1.171875 L 4.035156 -1.269531 C 4.839844 -1.789062 5.480469 -2.367188 5.957031 -2.996094 C 5.914062 -3.210938 5.847656 -3.394531 5.761719 -3.546875 C 5.285156 -3.050781 4.699219 -2.636719 4.003906 -2.3125 L 3.972656 -2.410156 C 4.644531 -2.886719 5.175781 -3.375 5.566406 -3.875 C 5.5 -3.960938 5.402344 -4.101562 5.273438 -4.296875 C 4.859375 -3.972656 4.425781 -3.699219 3.972656 -3.484375 L 3.90625 -3.582031 C 4.578125 -4.035156 5.101562 -4.515625 5.46875 -5.011719 M 2.703125 -3.386719 L 3.417969 -3.386719 L 3.613281 -3.644531 L 4.070312 -3.289062 L 3.839844 -3.09375 L 3.839844 -0.683594 C 4.230469 -0.335938 4.605469 -0.128906 4.964844 -0.0664062 C 5.320312 0 5.734375 0.0429688 6.199219 0.0664062 C 6.667969 0.0859375 7.269531 0.0429688 8.007812 -0.0664062 L 8.007812 0.03125 C 7.640625 0.164062 7.453125 0.335938 7.453125 0.554688 C 6.390625 0.554688 5.71875 0.519531 5.4375 0.457031 C 5.152344 0.390625 4.90625 0.304688 4.6875 0.195312 C 4.46875 0.0859375 4.253906 -0.0742188 4.035156 -0.292969 C 3.949219 -0.378906 3.851562 -0.421875 3.742188 -0.421875 C 3.613281 -0.421875 3.457031 -0.332031 3.269531 -0.144531 C 3.085938 0.0390625 2.941406 0.25 2.832031 0.488281 L 2.375 0.0664062 C 2.613281 -0.109375 2.972656 -0.347656 3.449219 -0.652344 L 3.449219 -3.191406 C 3.386719 -3.191406 3.234375 -3.15625 2.996094 -3.09375 L 2.703125 -3.386719 M 4.492188 -6.671875 L 4.589844 -6.738281 C 4.9375 -6.476562 5.152344 -6.289062 5.242188 -6.167969 C 5.328125 -6.050781 5.371094 -5.933594 5.371094 -5.828125 C 5.371094 -5.71875 5.328125 -5.613281 5.242188 -5.515625 C 5.152344 -5.417969 5.089844 -5.371094 5.046875 -5.371094 C 4.957031 -5.371094 4.90625 -5.480469 4.882812 -5.695312 C 4.839844 -6.023438 4.710938 -6.347656 4.492188 -6.671875 M 0.75 -6.574219 L 1.238281 -6.28125 L 2.082031 -6.28125 L 2.410156 -6.609375 L 2.898438 -6.121094 L 2.605469 -5.925781 L 1.726562 -4.230469 C 2.027344 -3.972656 2.289062 -3.695312 2.507812 -3.402344 C 2.722656 -3.109375 2.84375 -2.828125 2.863281 -2.554688 C 2.886719 -2.285156 2.828125 -2.011719 2.683594 -1.742188 C 2.542969 -1.46875 2.269531 -1.28125 1.855469 -1.171875 C 1.855469 -1.453125 1.636719 -1.671875 1.203125 -1.824219 L 1.203125 0.519531 L 0.75 0.75 C 0.769531 -0.164062 0.78125 -1.523438 0.78125 -3.335938 C 0.78125 -5.148438 0.769531 -6.226562 0.75 -6.574219 M 2.148438 -6.085938 L 1.203125 -6.085938 L 1.203125 -1.953125 C 1.488281 -1.886719 1.714844 -1.855469 1.886719 -1.855469 C 1.996094 -1.855469 2.109375 -1.882812 2.230469 -1.9375 C 2.347656 -1.992188 2.410156 -2.214844 2.410156 -2.605469 C 2.410156 -2.996094 2.125 -3.527344 1.5625 -4.199219 L 2.148438 -6.085938 M 2.960938 -5.957031 C 3.441406 -5.632812 3.710938 -5.371094 3.777344 -5.175781 C 3.839844 -4.980469 3.8125 -4.824219 3.695312 -4.703125 C 3.574219 -4.585938 3.492188 -4.523438 3.449219 -4.523438 C 3.363281 -4.523438 3.308594 -4.644531 3.289062 -4.882812 C 3.246094 -5.207031 3.101562 -5.542969 2.863281 -5.890625 Z "/>
</g>
<g id="glyph-0-3">
<path d="M 6.414062 -4.851562 L 6.835938 -5.597656 L 1.5625 -5.597656 C 1.5625 -5.144531 1.488281 -4.878906 1.335938 -4.800781 C 1.183594 -4.726562 1.074219 -4.6875 1.007812 -4.6875 C 0.945312 -4.6875 0.882812 -4.710938 0.828125 -4.753906 C 0.777344 -4.796875 0.75 -4.839844 0.75 -4.882812 C 0.75 -4.949219 0.835938 -5.046875 1.007812 -5.175781 C 1.226562 -5.347656 1.367188 -5.664062 1.433594 -6.121094 L 1.5625 -6.121094 L 1.5625 -5.792969 L 4.199219 -5.792969 C 4.15625 -5.945312 4.101562 -6.09375 4.035156 -6.234375 C 3.972656 -6.375 3.839844 -6.542969 3.644531 -6.738281 L 3.679688 -6.835938 C 4.113281 -6.683594 4.382812 -6.554688 4.492188 -6.445312 C 4.601562 -6.335938 4.65625 -6.25 4.65625 -6.183594 C 4.65625 -6.078125 4.578125 -5.945312 4.425781 -5.792969 L 6.804688 -5.792969 L 7.128906 -6.121094 L 7.683594 -5.566406 C 7.464844 -5.542969 7.296875 -5.496094 7.175781 -5.417969 C 7.058594 -5.34375 6.835938 -5.132812 6.511719 -4.785156 L 6.414062 -4.851562 M 3.027344 -5.46875 L 3.613281 -4.980469 C 3.417969 -4.914062 3.09375 -4.753906 2.636719 -4.492188 C 2.160156 -4.210938 1.617188 -3.972656 1.007812 -3.777344 L 0.976562 -3.90625 C 1.519531 -4.144531 1.957031 -4.398438 2.292969 -4.671875 C 2.632812 -4.941406 2.875 -5.207031 3.027344 -5.46875 M 4.851562 -5.339844 C 5.804688 -5.054688 6.417969 -4.832031 6.6875 -4.671875 C 6.960938 -4.507812 7.085938 -4.335938 7.0625 -4.148438 C 7.042969 -3.964844 7 -3.875 6.933594 -3.875 C 6.867188 -3.875 6.78125 -3.929688 6.671875 -4.035156 C 6.433594 -4.253906 6.222656 -4.433594 6.039062 -4.574219 C 5.855469 -4.714844 5.445312 -4.925781 4.816406 -5.207031 L 4.851562 -5.339844 M 2.960938 -3.191406 C 2.722656 -3.125 2.453125 -2.820312 2.148438 -2.277344 L 4.785156 -2.277344 L 4.785156 -3.710938 L 2.898438 -3.710938 C 2.613281 -3.710938 2.355469 -3.679688 2.117188 -3.613281 L 1.824219 -3.90625 L 5.402344 -3.90625 L 5.792969 -4.296875 L 6.347656 -3.710938 L 5.207031 -3.710938 L 5.207031 -2.277344 L 6.316406 -2.277344 L 6.738281 -2.703125 L 7.324219 -2.082031 L 5.207031 -2.082031 L 5.207031 0 C 5.1875 0.433594 4.957031 0.695312 4.523438 0.78125 C 4.503906 0.476562 4.199219 0.25 3.613281 0.0976562 L 3.613281 -0.03125 C 4.222656 0.0546875 4.566406 0.09375 4.65625 0.0820312 C 4.742188 0.0703125 4.785156 0.0117188 4.785156 -0.0976562 L 4.785156 -2.082031 C 4.242188 -1.34375 3.65625 -0.765625 3.027344 -0.339844 C 2.398438 0.0820312 1.671875 0.421875 0.847656 0.683594 L 0.78125 0.554688 C 1.605469 0.226562 2.304688 -0.171875 2.878906 -0.652344 C 3.457031 -1.128906 3.882812 -1.605469 4.167969 -2.082031 L 2.148438 -2.082031 L 1.855469 -1.824219 L 1.464844 -2.277344 C 1.636719 -2.367188 1.789062 -2.507812 1.921875 -2.703125 C 2.050781 -2.898438 2.203125 -3.191406 2.375 -3.582031 Z "/>
</g>
</g>
</defs>
<g fill="rgb(98.823529%, 38.431373%, 33.333333%)" fill-opacity="1">
<use xlink:href="#glyph-0-0" x="30" y="27.161133"/>
<use xlink:href="#glyph-0-1" x="38" y="27.161133"/>
<use xlink:href="#glyph-0-2" x="46" y="27.161133"/>
<use xlink:href="#glyph-0-3" x="54" y="27.161133"/>
</g>
</svg>
